<svg width="66" height="66" viewBox="0 0 66 66" fill="none" xmlns="http://www.w3.org/2000/svg">
<path d="M55.9688 33.6192L58.252 32.2497C59.2214 31.6641 60.0237 30.8388 60.5816 29.8533C61.1396 28.8677 61.4343 27.755 61.4375 26.6225V26.4375C61.4375 26.1474 61.3223 25.8692 61.1171 25.6641C60.912 25.459 60.6338 25.3438 60.3438 25.3438H49.4062C49.1162 25.3438 48.838 25.459 48.6329 25.6641C48.4277 25.8692 48.3125 26.1474 48.3125 26.4375V26.6225C48.3157 27.7551 48.6106 28.8678 49.1686 29.8534C49.7267 30.839 50.5292 31.6642 51.4987 32.2497L53.7812 33.6192V37.375H45.1445L46.1197 27.4924C46.1232 27.4567 46.125 27.4208 46.125 27.385C46.1234 26.8844 45.9699 26.3961 45.6847 25.9846C45.3996 25.5732 44.9963 25.258 44.5281 25.0807L37.1538 22.3153L36.5371 20.4651C37.1235 20.1304 37.611 19.6466 37.9502 19.0628C38.2894 18.479 38.4683 17.8158 38.4688 17.1406V12.2188C38.7588 12.2188 39.037 12.1035 39.2421 11.8984C39.4473 11.6933 39.5625 11.4151 39.5625 11.125V9.81455C39.5632 9.01091 39.3107 8.22748 38.8408 7.57554C38.3709 6.9236 37.7075 6.43631 36.9449 6.18289L35.5334 5.71244C35.404 5.66925 35.2676 5.6507 35.1313 5.65775C34.417 4.95524 33.455 4.56185 32.4531 4.5625H26.4375C26.1474 4.5625 25.8692 4.67774 25.6641 4.88285C25.459 5.08797 25.3438 5.36617 25.3438 5.65625V8.39063C25.3443 9.11496 25.55 9.82433 25.9372 10.4365C26.3244 11.0487 26.8771 11.5387 27.5312 11.8496V17.1406C27.5317 17.8158 27.7106 18.479 28.0498 19.0628C28.389 19.6466 28.8765 20.1304 29.4629 20.4651L28.8462 22.3153L21.4719 25.0807C21.0037 25.258 20.6004 25.5732 20.3153 25.9846C20.0301 26.3961 19.8766 26.8844 19.875 27.385C19.875 27.4208 19.8768 27.4567 19.8803 27.4924L20.8555 37.375H12.2188V33.6192L14.502 32.2497C15.4714 31.6641 16.2737 30.8388 16.8316 29.8533C17.3896 28.8677 17.6843 27.755 17.6875 26.6225V26.4375C17.6875 26.1474 17.5723 25.8692 17.3671 25.6641C17.162 25.459 16.8838 25.3438 16.5938 25.3438H5.65625C5.36617 25.3438 5.08797 25.459 4.88285 25.6641C4.67773 25.8692 4.5625 26.1474 4.5625 26.4375V26.6225C4.56573 27.7551 4.86057 28.8678 5.41863 29.8534C5.97669 30.839 6.77916 31.6642 7.74873 32.2497L10.0312 33.6192V37.375H0.1875V39.5625H65.8125V37.375H55.9688V33.6192ZM50.5968 27.5312H59.1532C59.0271 28.1183 58.7822 28.6734 58.4336 29.1623C58.0849 29.6511 57.6399 30.0635 57.1259 30.3739L54.875 31.7244L52.6242 30.3739C52.1102 30.0635 51.6651 29.6512 51.3164 29.1623C50.9678 28.6734 50.7229 28.1183 50.5968 27.5312ZM6.8468 27.5312H15.4032C15.2771 28.1183 15.0322 28.6734 14.6836 29.1623C14.335 29.6511 13.8899 30.0635 13.3759 30.3739L11.125 31.7244L8.8742 30.3739C8.36017 30.0635 7.91511 29.6512 7.56644 29.1623C7.21777 28.6734 6.97286 28.1183 6.8468 27.5312ZM30.9376 22.9584L31.6008 20.9688H34.3992L35.0624 22.9584L33 25.7084L30.9376 22.9584ZM36.2812 17.1406C36.2808 17.5756 36.1078 17.9926 35.8002 18.3002C35.4926 18.6078 35.0756 18.7808 34.6406 18.7813H31.3594C30.9244 18.7808 30.5074 18.6078 30.1998 18.3002C29.8922 17.9926 29.7192 17.5756 29.7188 17.1406V12.2188H36.2812V17.1406ZM36.2812 8.26758C36.6013 8.38041 36.8784 8.58983 37.0743 8.86691C37.2702 9.14399 37.3753 9.47507 37.375 9.81442V10.0313H36.2812V8.26758ZM27.5312 6.75H32.4531C32.8881 6.75047 33.3051 6.92347 33.6127 7.23105C33.9203 7.53862 34.0933 7.95565 34.0938 8.39063V10.0313H29.1719C28.7369 10.0308 28.3199 9.85778 28.0123 9.5502C27.7047 9.24263 27.5317 8.8256 27.5312 8.39063V6.75ZM22.0646 27.3519C22.0708 27.3023 22.0904 27.2553 22.1213 27.2161C22.1522 27.1768 22.1932 27.1467 22.24 27.129L24.3977 26.3198L25.3438 31.9968V37.375H23.0537L22.0646 27.3519ZM27.5312 37.375V31.9062C27.5312 31.846 27.5262 31.7859 27.5163 31.7265L26.5554 25.9608L29.3914 24.5427L32.125 28.1875C32.2269 28.3233 32.359 28.4336 32.5109 28.5095C32.6627 28.5855 32.8302 28.625 33 28.625C33.1698 28.625 33.3373 28.5855 33.4891 28.5095C33.641 28.4336 33.7731 28.3233 33.875 28.1875L36.6086 24.5427L39.4199 25.9485L38.4902 30.598C38.476 30.6686 38.4688 30.7405 38.4688 30.8125V37.375H27.5312ZM40.6562 37.375V30.9208L41.5783 26.3108L43.7602 27.129C43.8069 27.1467 43.8479 27.1768 43.8788 27.2161C43.9097 27.2554 43.9292 27.3023 43.9354 27.3519L42.9463 37.375H40.6562Z" fill="#B07D3D"/>
<path d="M65.8125 41.75H55.9688V43.9375H65.8125V41.75Z" fill="#B07D3D"/>
<path d="M53.7812 41.75H0.1875V43.9375H53.7812V41.75Z" fill="#B07D3D"/>
<path d="M65.8125 0.1875H7.84375V2.375H65.8125V0.1875Z" fill="#B07D3D"/>
<path d="M5.65625 0.1875H0.1875V2.375H5.65625V0.1875Z" fill="#B07D3D"/>
<path d="M25.3438 22.0625V19.875H22.0625V15.5C22.0625 15.3302 22.023 15.1627 21.947 15.0108L20.8532 12.8233C20.7624 12.6417 20.6228 12.4889 20.45 12.3821C20.2772 12.2753 20.0781 12.2188 19.875 12.2188H18.7812V10.0312H16.5938V12.2188H15.5C15.2969 12.2188 15.0978 12.2753 14.925 12.3821C14.7522 12.4889 14.6126 12.6417 14.5218 12.8233L13.428 15.0108C13.352 15.1627 13.3125 15.3302 13.3125 15.5V19.875H11.125V11.125C11.125 10.9552 11.0855 10.7877 11.0095 10.6358L9.91572 8.44832C9.82488 8.26666 9.68525 8.11388 9.51248 8.0071C9.3397 7.90032 9.14061 7.84376 8.9375 7.84375H7.84375V4.5625H5.65625V7.84375H4.5625C4.35939 7.84376 4.1603 7.90032 3.98752 8.0071C3.81475 8.11388 3.67512 8.26666 3.58428 8.44832L2.49053 10.6358C2.41454 10.7877 2.37498 10.9552 2.375 11.125V19.875H0.1875V22.0625H25.3438ZM15.5 15.7583L16.1759 14.4062H19.1991L19.875 15.7583V19.875H15.5V15.7583ZM4.5625 11.3833L5.23844 10.0312H8.26156L8.9375 11.3833V19.875H4.5625V11.3833Z" fill="#B07D3D"/>
<path d="M63.7871 11.0293C63.7872 10.8595 63.7476 10.6921 63.6716 10.5403L62.5779 8.35275C62.4871 8.17107 62.3474 8.01826 62.1747 7.91145C62.0019 7.80465 61.8028 7.74807 61.5996 7.74805H60.3438V4.5625H58.1562V7.74805H57.2246C57.0215 7.74807 56.8224 7.80465 56.6496 7.91145C56.4769 8.01826 56.3372 8.17107 56.2464 8.35275L55.1527 10.5403C55.0767 10.6921 55.0371 10.8595 55.0371 11.0293V19.875H52.6875V15.5C52.6875 15.3302 52.648 15.1627 52.572 15.0108L51.4782 12.8233C51.3874 12.6417 51.2478 12.4889 51.075 12.3821C50.9022 12.2753 50.7031 12.2188 50.5 12.2188H49.4062V10.0312H47.2188V12.2188H46.125C45.9219 12.2188 45.7228 12.2753 45.55 12.3821C45.3772 12.4889 45.2376 12.6417 45.1468 12.8233L44.053 15.0108C43.977 15.1627 43.9375 15.3302 43.9375 15.5V19.875H40.6562V22.0625H65.8125V19.875H63.7871V11.0293ZM57.2246 11.2876L57.9006 9.93555H60.9237L61.5996 11.2876V19.7793H57.2246V11.2876ZM46.125 19.875V15.7583L46.8009 14.4062H49.8241L50.5 15.7583V19.875H46.125Z" fill="#B07D3D"/>
<path d="M37.375 30.8125H34.0938V33H37.375V30.8125Z" fill="#B07D3D"/>
<path d="M16.3203 46.125H5.92969C5.27724 46.1258 4.65173 46.3853 4.19038 46.8466C3.72903 47.308 3.46951 47.9335 3.46875 48.5859V50.5C3.46876 50.7295 3.54099 50.9533 3.67521 51.1395C3.80943 51.3257 3.99884 51.465 4.2166 51.5376L10.0312 53.4758V63.625H7.84375V65.8125H14.4062V63.625H12.2188V53.4758L18.0334 51.5376C18.2512 51.465 18.4406 51.3257 18.5748 51.1395C18.709 50.9533 18.7812 50.7295 18.7812 50.5V48.5859C18.7805 47.9335 18.521 47.308 18.0596 46.8466C17.5983 46.3853 16.9728 46.1258 16.3203 46.125ZM16.5938 49.7117L11.125 51.5345L5.65625 49.7117V48.5859C5.65625 48.5134 5.68506 48.4439 5.73634 48.3926C5.78762 48.3413 5.85717 48.3125 5.92969 48.3125H16.3203C16.3928 48.3125 16.4624 48.3413 16.5137 48.3926C16.5649 48.4439 16.5938 48.5134 16.5938 48.5859V49.7117Z" fill="#B07D3D"/>
<path d="M38.1953 46.125H27.8047C27.1522 46.1258 26.5267 46.3853 26.0654 46.8466C25.604 47.308 25.3445 47.9335 25.3438 48.5859V50.5C25.3438 50.7295 25.416 50.9533 25.5502 51.1395C25.6844 51.3257 25.8738 51.465 26.0916 51.5376L31.9062 53.4758V63.625H29.7188V65.8125H36.2812V63.625H34.0938V53.4758L39.9084 51.5376C40.1262 51.465 40.3156 51.3257 40.4498 51.1395C40.584 50.9533 40.6562 50.7295 40.6562 50.5V48.5859C40.6555 47.9335 40.396 47.308 39.9346 46.8466C39.4733 46.3853 38.8478 46.1258 38.1953 46.125ZM38.4688 49.7117L33 51.5345L27.5312 49.7117V48.5859C27.5312 48.5134 27.5601 48.4439 27.6113 48.3926C27.6626 48.3413 27.7322 48.3125 27.8047 48.3125H38.1953C38.2678 48.3125 38.3374 48.3413 38.3887 48.3926C38.4399 48.4439 38.4688 48.5134 38.4688 48.5859V49.7117Z" fill="#B07D3D"/>
<path d="M60.0703 46.125H49.6797C49.0272 46.1258 48.4017 46.3853 47.9404 46.8466C47.479 47.308 47.2195 47.9335 47.2188 48.5859V50.5C47.2188 50.7295 47.291 50.9533 47.4252 51.1395C47.5594 51.3257 47.7488 51.465 47.9666 51.5376L53.7812 53.4758V63.625H51.5938V65.8125H58.1562V63.625H55.9688V53.4758L61.7834 51.5376C62.0012 51.465 62.1906 51.3257 62.3248 51.1395C62.459 50.9533 62.5312 50.7295 62.5312 50.5V48.5859C62.5305 47.9335 62.271 47.308 61.8096 46.8466C61.3483 46.3853 60.7228 46.1258 60.0703 46.125ZM60.3438 49.7117L54.875 51.5345L49.4062 49.7117V48.5859C49.4062 48.5134 49.4351 48.4439 49.4863 48.3926C49.5376 48.3413 49.6072 48.3125 49.6797 48.3125H60.0703C60.1428 48.3125 60.2124 48.3413 60.2637 48.3926C60.3149 48.4439 60.3438 48.5134 60.3438 48.5859V49.7117Z" fill="#B07D3D"/>
</svg>
