<?xml version="1.0" encoding="UTF-8"?>
<svg xmlns="http://www.w3.org/2000/svg" xmlns:xlink="http://www.w3.org/1999/xlink" width="2834.65pt" height="2834.65pt" viewBox="0 0 2834.65 2834.65" version="1.1">
<defs>
<filter id="alpha" filterUnits="objectBoundingBox" x="0%" y="0%" width="100%" height="100%">
  <feColorMatrix type="matrix" in="SourceGraphic" values="0 0 0 0 1 0 0 0 0 1 0 0 0 0 1 0 0 0 1 0"/>
</filter>
<mask id="mask0">
  <g filter="url(#alpha)">
<rect x="0" y="0" width="2834.65" height="2834.65" style="fill:rgb(0%,0%,0%);fill-opacity:0.699997;stroke:none;"/>
  </g>
</mask>
<clipPath id="clip2">
  <path d="M 0.820313 1 L 88 1 L 88 120 L 0.820313 120 Z M 0.820313 1 "/>
</clipPath>
<clipPath id="clip3">
  <path d="M 504 0.410156 L 611 0.410156 L 611 121.4375 L 504 121.4375 Z M 504 0.410156 "/>
</clipPath>
<clipPath id="clip4">
  <path d="M 844 0.410156 L 965 0.410156 L 965 121.4375 L 844 121.4375 Z M 844 0.410156 "/>
</clipPath>
<clipPath id="clip5">
  <path d="M 1019 1 L 1117 1 L 1117 121.4375 L 1019 121.4375 Z M 1019 1 "/>
</clipPath>
<clipPath id="clip6">
  <path d="M 1325 0.410156 L 1440 0.410156 L 1440 121.4375 L 1325 121.4375 Z M 1325 0.410156 "/>
</clipPath>
<clipPath id="clip7">
  <path d="M 1495 1 L 1569.820313 1 L 1569.820313 120 L 1495 120 Z M 1495 1 "/>
</clipPath>
<clipPath id="clip1">
  <rect width="1570" height="122"/>
</clipPath>
<g id="surface4" clip-path="url(#clip1)">
<g clip-path="url(#clip2)" clip-rule="nonzero">
<path style=" stroke:none;fill-rule:nonzero;fill:rgb(6.47583%,5.92804%,5.235291%);fill-opacity:1;" d="M 19.414063 67.542969 L 19.414063 103.160156 L 48.730469 103.160156 C 60.707031 103.160156 68.742188 97.484375 68.742188 85.507813 C 68.742188 73.375 60.707031 67.542969 49.515625 67.542969 Z M 19.414063 18.535156 L 19.414063 51.46875 L 47.625 51.46875 C 58.5 51.46875 63.859375 46.113281 63.859375 35.238281 C 63.859375 24.363281 56.449219 18.535156 44.945313 18.535156 Z M 0.820313 1.984375 L 47.152344 1.984375 C 68.585938 1.984375 82.925781 13.171875 82.925781 33.976563 C 82.925781 45.796875 78.511719 53.992188 69.6875 58.246094 C 80.5625 61.875 87.96875 71.800781 87.96875 86.457031 C 87.96875 108.042969 72.996094 119.863281 50.933594 119.863281 L 0.820313 119.863281 Z M 0.820313 1.984375 "/>
</g>
<path style=" stroke:none;fill-rule:nonzero;fill:rgb(6.47583%,5.92804%,5.235291%);fill-opacity:1;" d="M 168.5 76.84375 L 206.792969 76.84375 L 187.726563 30.984375 Z M 245.402344 119.863281 L 224.761719 119.863281 L 213.886719 93.546875 L 161.253906 93.546875 L 150.21875 119.863281 L 129.734375 119.863281 L 179.53125 1.984375 L 195.449219 1.984375 Z M 245.402344 119.863281 "/>
<path style=" stroke:none;fill-rule:nonzero;fill:rgb(6.47583%,5.92804%,5.235291%);fill-opacity:1;" d="M 313.957031 58.085938 L 340.589844 58.085938 C 352.410156 58.085938 360.761719 50.996094 360.761719 38.386719 C 360.761719 25.625 352.410156 18.535156 340.589844 18.535156 L 313.957031 18.535156 Z M 365.019531 119.863281 L 340.121094 74.789063 L 314.117188 74.789063 L 314.117188 119.863281 L 295.363281 119.863281 L 295.363281 1.984375 L 342.957031 1.984375 C 353.984375 1.984375 362.96875 5.140625 369.746094 11.597656 C 376.523438 17.902344 379.992188 26.886719 379.992188 38.386719 C 379.992188 54.9375 372.265625 66.4375 359.660156 71.640625 L 386.136719 119.863281 Z M 365.019531 119.863281 "/>
<g clip-path="url(#clip3)" clip-rule="nonzero">
<path style=" stroke:none;fill-rule:nonzero;fill:rgb(6.47583%,5.92804%,5.235291%);fill-opacity:1;" d="M 567.84375 94.019531 L 536.484375 66.910156 L 534.433594 65.023438 C 527.027344 70.539063 523.246094 77.628906 523.246094 86.136719 C 523.246094 97.957031 531.28125 105.367188 544.363281 105.367188 C 553.34375 105.367188 561.222656 101.585938 567.84375 94.019531 M 599.359375 121.4375 L 580.289063 104.894531 C 570.363281 115.765625 558.386719 121.28125 544.046875 121.28125 C 531.28125 121.28125 521.511719 118.128906 514.578125 111.984375 C 507.644531 105.679688 504.175781 97.644531 504.175781 87.871094 C 504.175781 73.375 511.109375 63.601563 523.71875 54.777344 C 517.253906 47.058594 513.945313 39.335938 513.945313 31.457031 C 513.945313 11.445313 527.339844 0.410156 547.988281 0.410156 C 566.109375 0.410156 579.347656 10.96875 581.867188 28.460938 L 563.742188 29.882813 C 562.324219 20.898438 557.125 16.480469 547.988281 16.480469 C 538.53125 16.480469 532.699219 21.683594 532.699219 31.296875 C 532.699219 35.550781 534.277344 39.335938 536.953125 42.644531 C 538.84375 44.691406 539.003906 45.164063 541.527344 47.53125 L 544.046875 49.894531 C 544.519531 50.207031 545.621094 50.996094 547.039063 52.414063 L 549.878906 54.777344 L 577.453125 78.578125 C 580.289063 72.429688 582.8125 65.023438 585.019531 56.351563 L 601.566406 60.765625 C 598.570313 71.800781 594.789063 81.566406 590.375 89.917969 L 610.707031 107.414063 Z M 599.359375 121.4375 "/>
</g>
<path style=" stroke:none;fill-rule:nonzero;fill:rgb(6.47583%,5.92804%,5.235291%);fill-opacity:1;" d="M 747.183594 103.160156 L 802.972656 103.160156 L 802.972656 119.863281 L 728.429688 119.863281 L 728.429688 1.984375 L 747.183594 1.984375 Z M 747.183594 103.160156 "/>
<g clip-path="url(#clip4)" clip-rule="nonzero">
<path style=" stroke:none;fill-rule:nonzero;fill:rgb(6.47583%,5.92804%,5.235291%);fill-opacity:1;" d="M 874.832031 28.933594 C 867.113281 36.652344 863.328125 47.371094 863.328125 60.925781 C 863.328125 74.320313 867.113281 85.035156 874.832031 92.914063 C 882.558594 100.796875 892.328125 104.734375 904.460938 104.734375 C 916.4375 104.734375 926.207031 100.796875 933.929688 92.914063 C 941.652344 85.035156 945.433594 74.320313 945.433594 60.925781 C 945.433594 47.371094 941.652344 36.652344 933.929688 28.933594 C 926.207031 21.054688 916.4375 17.113281 904.460938 17.113281 C 892.328125 17.113281 882.558594 21.054688 874.832031 28.933594 M 947.480469 16.960938 C 958.828125 27.832031 964.503906 42.488281 964.503906 60.925781 C 964.503906 79.363281 958.828125 94.019531 947.480469 105.046875 C 936.292969 115.921875 921.953125 121.4375 904.460938 121.4375 C 886.96875 121.4375 872.472656 115.921875 861.121094 105.046875 C 849.933594 94.019531 844.261719 79.363281 844.261719 60.925781 C 844.261719 42.488281 849.933594 27.832031 861.121094 16.960938 C 872.472656 5.925781 886.96875 0.410156 904.460938 0.410156 C 921.953125 0.410156 936.292969 5.925781 947.480469 16.960938 "/>
</g>
<g clip-path="url(#clip5)" clip-rule="nonzero">
<path style=" stroke:none;fill-rule:nonzero;fill:rgb(6.47583%,5.92804%,5.235291%);fill-opacity:1;" d="M 1116.742188 1.984375 L 1116.742188 74.003906 C 1116.742188 104.105469 1098.457031 121.4375 1068.355469 121.4375 C 1038.257813 121.4375 1019.976563 104.105469 1019.976563 74.003906 L 1019.976563 1.984375 L 1038.730469 1.984375 L 1038.730469 73.6875 C 1038.730469 94.019531 1049.289063 104.734375 1068.355469 104.734375 C 1087.269531 104.734375 1097.984375 93.859375 1097.984375 73.6875 L 1097.984375 1.984375 Z M 1116.742188 1.984375 "/>
</g>
<path style=" stroke:none;fill-rule:nonzero;fill:rgb(6.47583%,5.92804%,5.235291%);fill-opacity:1;" d="M 1269.761719 119.863281 L 1253.847656 119.863281 L 1195.699219 36.652344 L 1195.699219 119.863281 L 1176.941406 119.863281 L 1176.941406 1.984375 L 1192.703125 1.984375 L 1251.011719 85.351563 L 1251.011719 1.984375 L 1269.761719 1.984375 Z M 1269.761719 119.863281 "/>
<g clip-path="url(#clip6)" clip-rule="nonzero">
<path style=" stroke:none;fill-rule:nonzero;fill:rgb(6.47583%,5.92804%,5.235291%);fill-opacity:1;" d="M 1439.652344 58.085938 L 1439.652344 64.234375 C 1439.652344 81.726563 1434.609375 95.59375 1424.679688 105.996094 C 1414.753906 116.234375 1401.355469 121.4375 1384.496094 121.4375 C 1367.320313 121.4375 1353.292969 116.082031 1342.257813 105.207031 C 1331.386719 94.335938 1325.875 79.519531 1325.875 60.925781 C 1325.875 42.171875 1331.230469 27.515625 1342.105469 16.640625 C 1352.976563 5.769531 1367.160156 0.410156 1384.335938 0.410156 C 1398.050781 0.410156 1409.867188 4.035156 1419.796875 11.445313 C 1429.722656 18.691406 1435.867188 28.777344 1438.550781 41.542969 L 1419.164063 44.691406 C 1416.011719 27.515625 1402.933594 17.113281 1384.179688 17.113281 C 1360.222656 17.113281 1344.941406 32.558594 1344.941406 60.925781 C 1344.941406 89.132813 1360.382813 104.734375 1384.179688 104.734375 C 1403.246094 104.734375 1416.328125 94.808594 1419.324219 74.636719 L 1384.496094 74.636719 L 1384.496094 58.085938 Z M 1439.652344 58.085938 "/>
</g>
<g clip-path="url(#clip7)" clip-rule="nonzero">
<path style=" stroke:none;fill-rule:nonzero;fill:rgb(6.47583%,5.92804%,5.235291%);fill-opacity:1;" d="M 1569.824219 18.535156 L 1514.511719 18.535156 L 1514.511719 50.996094 L 1562.890625 50.996094 L 1562.890625 67.230469 L 1514.511719 67.230469 L 1514.511719 103.160156 L 1569.824219 103.160156 L 1569.824219 119.863281 L 1495.757813 119.863281 L 1495.757813 1.984375 L 1569.824219 1.984375 Z M 1569.824219 18.535156 "/>
</g>
</g>
</defs>
<g id="surface1">
<path style=" stroke:none;fill-rule:nonzero;fill:rgb(79.676819%,64.544678%,44.439697%);fill-opacity:1;" d="M 1256.175781 909.273438 C 1256.175781 948.304688 1287.929688 980.058594 1326.960938 980.058594 C 1365.992188 980.058594 1397.75 948.304688 1397.75 909.273438 L 1397.75 705.230469 L 1397.714844 705.230469 L 1397.714844 497.070313 C 1397.714844 436.433594 1447.046875 387.101563 1507.683594 387.101563 C 1568.324219 387.101563 1617.652344 436.433594 1617.652344 497.070313 L 1617.652344 683.578125 L 1835.382813 683.578125 L 1835.121094 679.015625 C 1822.472656 457.910156 1638.945313 284.710938 1417.304688 284.710938 C 1394.800781 284.710938 1372.21875 286.519531 1350.183594 290.089844 L 1346.554688 290.675781 L 1346.554688 907.101563 C 1346.554688 917.910156 1337.765625 926.695313 1326.960938 926.695313 C 1316.160156 926.695313 1307.371094 917.910156 1307.371094 907.101563 L 1307.371094 299.328125 L 1301.859375 300.914063 C 1131.160156 349.972656 1009.660156 501.917969 999.523438 679.015625 L 999.261719 683.578125 L 1256.109375 683.578125 L 1256.109375 701.117188 L 1256.175781 701.117188 Z M 999.523438 727.328125 C 1012.175781 948.449219 1195.6875 1121.667969 1417.304688 1121.667969 C 1439.902344 1121.667969 1462.5 1119.84375 1484.472656 1116.253906 L 1488.09375 1115.664063 L 1488.09375 500.195313 C 1488.09375 489.394531 1496.882813 480.601563 1507.683594 480.601563 C 1512.933594 480.601563 1517.84375 482.640625 1521.515625 486.34375 C 1525.242188 490.035156 1527.277344 494.949219 1527.277344 500.195313 L 1527.277344 1107.046875 L 1532.789063 1105.460938 C 1703.492188 1056.402344 1824.988281 904.445313 1835.121094 727.328125 L 1835.382813 722.761719 L 1578.378906 722.761719 L 1578.378906 683.578125 L 1578.472656 679.261719 L 1578.472656 497.070313 C 1578.472656 458.039063 1546.71875 426.285156 1507.683594 426.285156 C 1468.652344 426.285156 1436.898438 458.039063 1436.898438 497.070313 L 1436.898438 701.117188 L 1436.929688 701.117188 L 1436.929688 909.273438 C 1436.929688 969.910156 1387.601563 1019.242188 1326.960938 1019.242188 C 1266.324219 1019.242188 1216.992188 969.910156 1216.992188 909.273438 L 1216.992188 722.761719 L 999.261719 722.761719 Z M 1417.304688 1160.847656 C 1164.960938 1160.847656 959.660156 955.539063 959.660156 703.171875 C 959.660156 450.824219 1164.960938 245.527344 1417.304688 245.527344 C 1669.675781 245.527344 1874.984375 450.824219 1874.984375 703.171875 C 1874.984375 955.539063 1669.675781 1160.847656 1417.304688 1160.847656 "/>
<path style=" stroke:none;fill-rule:nonzero;fill:rgb(6.47583%,5.92804%,5.235291%);fill-opacity:1;" d="M 315.980469 2287.160156 C 302.660156 2287.160156 288.980469 2285.371094 275.324219 2281.84375 C 261.351563 2278.234375 248.40625 2271.523438 236.835938 2261.910156 C 225.265625 2252.296875 215.585938 2238.953125 208.074219 2222.246094 C 200.582031 2205.625 196.78125 2184.078125 196.78125 2158.222656 L 196.78125 2065.304688 C 196.78125 2057.839844 199.207031 2051.621094 203.992188 2046.832031 C 208.777344 2042.046875 214.996094 2039.621094 222.464844 2039.621094 C 229.832031 2039.621094 236.175781 2041.988281 241.328125 2046.660156 C 246.621094 2051.5 249.292969 2057.769531 249.292969 2065.304688 L 249.292969 2158.222656 C 249.292969 2166.410156 250.042969 2175.210938 251.519531 2184.386719 C 252.929688 2193.253906 255.980469 2201.507813 260.578125 2208.925781 C 265.085938 2216.214844 271.808594 2222.378906 280.558594 2227.265625 C 289.3125 2232.171875 301.414063 2234.65625 316.539063 2234.65625 L 322.277344 2234.65625 C 337.367188 2234.65625 349.25 2232.183594 357.601563 2227.3125 C 365.996094 2222.425781 372.550781 2216.242188 377.085938 2208.925781 C 381.671875 2201.511719 384.722656 2193.253906 386.152344 2184.390625 C 387.628906 2175.09375 388.378906 2166.289063 388.378906 2158.222656 L 388.378906 1991.875 C 388.378906 1983.824219 387.628906 1975.019531 386.148438 1965.707031 C 384.71875 1956.835938 381.667969 1948.578125 377.085938 1941.171875 C 372.5625 1933.882813 366.007813 1927.699219 357.601563 1922.792969 C 349.230469 1917.917969 337.347656 1915.449219 322.277344 1915.449219 L 315.390625 1915.449219 C 301.929688 1915.449219 288.148438 1913.449219 274.425781 1909.515625 C 260.425781 1905.523438 247.457031 1898.632813 235.890625 1889.042969 C 224.246094 1879.421875 214.699219 1866.050781 207.515625 1849.296875 C 200.394531 1832.679688 196.78125 1811.558594 196.78125 1786.515625 L 196.78125 1602.953125 C 196.78125 1579.445313 199.976563 1559.519531 206.265625 1543.726563 C 212.601563 1527.824219 220.875 1514.882813 230.855469 1505.25 C 240.808594 1495.640625 252.335938 1488.328125 265.113281 1483.519531 C 276.113281 1479.367188 287.285156 1476.695313 298.390625 1475.5625 L 298.390625 1474.011719 L 321.683594 1474.011719 C 335.007813 1474.011719 348.714844 1475.960938 362.425781 1479.796875 C 376.34375 1483.695313 389.242188 1490.394531 400.765625 1499.707031 C 412.363281 1509.105469 422.058594 1522.324219 429.59375 1539 C 437.085938 1555.628906 440.886719 1576.757813 440.886719 1601.800781 L 440.886719 1694.730469 C 440.886719 1702.183594 438.335938 1708.574219 433.304688 1713.726563 C 428.277344 1718.917969 421.992188 1721.554688 414.632813 1721.554688 C 407.265625 1721.554688 400.972656 1718.917969 395.929688 1713.714844 C 390.921875 1708.585938 388.378906 1702.195313 388.378906 1694.730469 L 388.378906 1601.800781 C 388.378906 1593.753906 387.628906 1584.949219 386.148438 1575.628906 C 384.71875 1566.769531 381.667969 1558.511719 377.085938 1551.097656 C 372.539063 1543.769531 366.207031 1537.972656 357.734375 1533.367188 C 349.339844 1528.824219 337.40625 1526.519531 322.277344 1526.519531 L 316.539063 1526.519531 C 301.386719 1526.519531 289.238281 1528.851563 280.433594 1533.445313 C 271.734375 1537.972656 265.058594 1543.9375 260.585938 1551.183594 C 255.984375 1558.636719 252.933594 1566.921875 251.523438 1575.816406 C 250.042969 1585.046875 249.292969 1593.875 249.292969 1602.066406 L 249.292969 1786.242188 C 249.292969 1794.421875 250.035156 1803.253906 251.503906 1812.5 C 252.894531 1821.375 255.929688 1829.660156 260.519531 1837.136719 C 264.988281 1844.417969 271.671875 1850.609375 280.382813 1855.539063 C 289.0625 1860.449219 301.082031 1862.9375 316.109375 1862.9375 L 321.808594 1862.9375 C 335.117188 1862.9375 348.777344 1864.734375 362.421875 1868.265625 C 376.371094 1871.875 389.304688 1878.585938 400.855469 1888.199219 C 412.421875 1897.832031 422.089844 1911.175781 429.597656 1927.863281 C 437.085938 1944.515625 440.886719 1966.050781 440.886719 1991.875 L 440.886719 2158.222656 C 440.886719 2181.710938 437.6875 2201.640625 431.386719 2217.453125 C 425.058594 2233.355469 416.597656 2246.492188 406.242188 2256.496094 C 395.945313 2266.460938 384.433594 2273.960938 372.035156 2278.789063 C 359.757813 2283.5625 347.15625 2286.375 334.5625 2287.148438 L 334.40625 2287.160156 Z M 315.980469 2287.160156 "/>
<path style=" stroke:none;fill-rule:nonzero;fill:rgb(6.47583%,5.92804%,5.235291%);fill-opacity:1;" d="M 739.4375 1996.027344 L 739.4375 1602 C 739.4375 1593.90625 738.6875 1585.078125 737.207031 1575.757813 C 735.773438 1566.871094 732.726563 1558.597656 728.140625 1551.167969 C 723.65625 1543.917969 716.976563 1537.949219 708.296875 1533.429688 C 699.5 1528.84375 687.347656 1526.519531 672.1875 1526.519531 L 666.453125 1526.519531 C 651.277344 1526.519531 639.125 1528.84375 630.347656 1533.425781 C 621.644531 1537.949219 614.96875 1543.917969 610.5 1551.164063 C 605.898438 1558.59375 602.851563 1566.863281 601.433594 1575.757813 C 599.953125 1584.972656 599.203125 1593.800781 599.203125 1602 L 599.203125 1996.027344 Z M 765.117188 2287.160156 C 757.535156 2287.160156 751.261719 2284.480469 746.476563 2279.191406 C 741.816406 2274.101563 739.4375 2267.75 739.4375 2260.335938 L 739.4375 2048.53125 L 599.203125 2048.53125 L 599.203125 2260.335938 C 599.203125 2277.632813 589.675781 2287.160156 572.375 2287.160156 C 564.796875 2287.160156 558.523438 2284.480469 553.730469 2279.199219 C 549.070313 2274.101563 546.695313 2267.75 546.695313 2260.335938 L 546.695313 1602.953125 C 546.695313 1577.847656 550.515625 1556.6875 558.046875 1540.070313 C 565.582031 1523.386719 575.308594 1510.042969 586.953125 1500.40625 C 598.480469 1490.851563 611.449219 1483.96875 625.488281 1479.949219 C 639.261719 1476.011719 653.042969 1474.011719 666.453125 1474.011719 L 689.839844 1474.011719 L 689.839844 1475.558594 C 700.996094 1476.695313 712.222656 1479.363281 723.289063 1483.515625 C 736.097656 1488.320313 747.675781 1495.632813 757.695313 1505.238281 C 767.714844 1514.863281 776.027344 1527.808594 782.40625 1543.714844 C 788.734375 1559.5625 791.945313 1579.492188 791.945313 1602.953125 L 791.945313 2260.335938 C 791.945313 2267.8125 789.324219 2274.214844 784.160156 2279.378906 C 779 2284.539063 772.589844 2287.160156 765.117188 2287.160156 "/>
<path style=" stroke:none;fill-rule:nonzero;fill:rgb(6.47583%,5.92804%,5.235291%);fill-opacity:1;" d="M 1022.097656 1952.425781 C 1037.207031 1952.425781 1049.3125 1949.941406 1058.074219 1945.035156 C 1066.816406 1940.148438 1073.539063 1933.984375 1078.058594 1926.703125 C 1082.640625 1919.28125 1085.6875 1911.019531 1087.117188 1902.160156 C 1088.597656 1892.871094 1089.347656 1884.070313 1089.347656 1876.003906 L 1089.347656 1602.953125 C 1089.347656 1594.898438 1088.597656 1586.09375 1087.113281 1576.78125 C 1085.683594 1567.917969 1082.636719 1559.65625 1078.054688 1552.246094 C 1073.53125 1544.953125 1067.035156 1539.160156 1058.207031 1534.554688 C 1049.40625 1529.984375 1037.25 1527.667969 1022.097656 1527.667969 L 949.113281 1527.667969 L 949.113281 1952.425781 Z M 923.429688 2287.160156 C 906.128906 2287.160156 896.605469 2277.632813 896.605469 2260.335938 L 896.605469 1500.839844 C 896.605469 1493.375 899.222656 1486.96875 904.386719 1481.800781 C 909.550781 1476.636719 915.957031 1474.011719 923.429688 1474.011719 L 1039.746094 1474.011719 L 1039.746094 1475.558594 C 1050.898438 1476.695313 1062.132813 1479.363281 1073.199219 1483.515625 C 1086.003906 1488.320313 1097.582031 1495.632813 1107.605469 1505.238281 C 1117.625 1514.863281 1125.933594 1527.808594 1132.3125 1543.714844 C 1138.644531 1559.570313 1141.855469 1579.5 1141.855469 1602.953125 L 1141.855469 1876.003906 C 1141.855469 1899.464844 1138.644531 1919.390625 1132.316406 1935.230469 C 1125.957031 1951.101563 1117.671875 1964.214844 1107.683594 1974.207031 C 1097.667969 1984.222656 1086.0625 1991.753906 1073.199219 1996.582031 C 1060.492188 2001.339844 1047.652344 2004.144531 1035.027344 2004.917969 L 949.113281 2004.929688 L 949.113281 2260.335938 C 949.113281 2267.71875 946.742188 2274.066406 942.0625 2279.203125 C 937.261719 2284.480469 930.996094 2287.160156 923.429688 2287.160156 "/>
<path style=" stroke:none;fill-rule:nonzero;fill:rgb(6.47583%,5.92804%,5.235291%);fill-opacity:1;" d="M 1372.003906 1952.425781 C 1387.113281 1952.425781 1399.222656 1949.941406 1407.984375 1945.035156 C 1416.722656 1940.148438 1423.445313 1933.984375 1427.964844 1926.703125 C 1432.550781 1919.28125 1435.597656 1911.019531 1437.023438 1902.160156 C 1438.507813 1892.886719 1439.257813 1884.085938 1439.257813 1876.003906 L 1439.257813 1602.953125 C 1439.257813 1594.882813 1438.507813 1586.074219 1437.023438 1576.78125 C 1435.597656 1567.917969 1432.546875 1559.660156 1427.960938 1552.246094 C 1423.4375 1544.953125 1416.945313 1539.160156 1408.113281 1534.554688 C 1399.3125 1529.984375 1387.160156 1527.667969 1372.003906 1527.667969 L 1299.019531 1527.667969 L 1299.019531 1952.425781 Z M 1273.339844 2287.160156 C 1256.039063 2287.160156 1246.515625 2277.632813 1246.515625 2260.335938 L 1246.515625 1500.839844 C 1246.515625 1493.371094 1249.132813 1486.964844 1254.296875 1481.796875 C 1259.460938 1476.636719 1265.867188 1474.011719 1273.339844 1474.011719 L 1389.652344 1474.011719 L 1389.652344 1475.558594 C 1400.804688 1476.695313 1412.035156 1479.363281 1423.105469 1483.515625 C 1435.914063 1488.320313 1447.488281 1495.632813 1457.515625 1505.238281 C 1467.535156 1514.863281 1475.84375 1527.808594 1482.222656 1543.714844 C 1488.550781 1559.566406 1491.761719 1579.492188 1491.761719 1602.953125 L 1491.761719 1876.003906 C 1491.761719 1899.464844 1488.550781 1919.390625 1482.222656 1935.230469 C 1475.867188 1951.101563 1467.578125 1964.214844 1457.589844 1974.207031 C 1447.574219 1984.222656 1435.972656 1991.753906 1423.105469 1996.582031 C 1410.398438 2001.339844 1397.558594 2004.144531 1384.933594 2004.917969 L 1299.019531 2004.929688 L 1299.019531 2260.335938 C 1299.019531 2267.726563 1296.648438 2274.070313 1291.96875 2279.203125 C 1287.167969 2284.480469 1280.902344 2287.160156 1273.339844 2287.160156 "/>
<path style=" stroke:none;fill-rule:nonzero;fill:rgb(6.47583%,5.92804%,5.235291%);fill-opacity:1;" d="M 1716.175781 2287.160156 C 1702.789063 2287.160156 1689.054688 2285.371094 1675.34375 2281.84375 C 1661.285156 2278.234375 1648.277344 2271.523438 1636.679688 2261.910156 C 1625.050781 2252.300781 1615.324219 2238.957031 1607.769531 2222.257813 C 1600.238281 2205.628906 1596.421875 2184.085938 1596.421875 2158.222656 L 1596.421875 1602.953125 C 1596.421875 1577.847656 1600.238281 1556.6875 1607.769531 1540.070313 C 1615.316406 1523.382813 1625.042969 1510.035156 1636.683594 1500.40625 C 1648.210938 1490.851563 1661.175781 1483.96875 1675.214844 1479.949219 C 1688.992188 1476.011719 1702.773438 1474.011719 1716.175781 1474.011719 L 1739.5625 1474.011719 L 1739.5625 1475.550781 C 1750.695313 1476.65625 1761.910156 1479.25 1772.976563 1483.285156 C 1785.804688 1487.988281 1797.375 1495.097656 1807.378906 1504.421875 C 1817.417969 1513.804688 1825.742188 1526.640625 1832.128906 1542.566406 C 1838.464844 1558.429688 1841.671875 1578.355469 1841.671875 1601.800781 L 1841.671875 1702.761719 C 1841.671875 1710.324219 1838.996094 1716.589844 1833.714844 1721.394531 C 1828.585938 1726.066406 1822.238281 1728.4375 1814.847656 1728.4375 C 1807.34375 1728.4375 1801.128906 1726.007813 1796.367188 1721.222656 C 1791.59375 1716.480469 1789.164063 1710.261719 1789.164063 1702.761719 L 1789.164063 1601.800781 C 1789.164063 1593.738281 1788.414063 1584.933594 1786.933594 1575.628906 C 1785.503906 1566.777344 1782.457031 1558.519531 1777.871094 1551.09375 C 1773.40625 1543.902344 1766.726563 1537.949219 1758.027344 1533.40625 C 1749.21875 1528.839844 1737.070313 1526.519531 1721.917969 1526.519531 L 1716.175781 1526.519531 C 1701.019531 1526.519531 1688.871094 1528.855469 1680.078125 1533.460938 C 1671.371094 1538.027344 1664.691406 1544.023438 1660.230469 1551.285156 C 1655.628906 1558.75 1652.582031 1567.0625 1651.164063 1576 C 1649.679688 1585.257813 1648.929688 1594.113281 1648.929688 1602.34375 L 1648.929688 1856.058594 L 1762.070313 1856.058594 C 1769.496094 1856.058594 1775.882813 1858.605469 1781.058594 1863.625 C 1786.261719 1868.695313 1788.898438 1874.980469 1788.898438 1882.308594 C 1788.898438 1889.648438 1786.261719 1895.941406 1781.070313 1901.007813 C 1775.902344 1906.019531 1769.515625 1908.558594 1762.070313 1908.558594 L 1648.929688 1908.558594 L 1648.929688 2158.222656 C 1648.929688 2166.417969 1649.679688 2175.222656 1651.160156 2184.386719 C 1652.574219 2193.261719 1655.621094 2201.511719 1660.214844 2208.925781 C 1664.722656 2216.207031 1671.445313 2222.378906 1680.199219 2227.265625 C 1688.953125 2232.171875 1701.050781 2234.65625 1716.175781 2234.65625 L 1721.917969 2234.65625 C 1737.027344 2234.65625 1749.132813 2232.171875 1757.898438 2227.265625 C 1766.632813 2222.378906 1773.355469 2216.214844 1777.878906 2208.925781 C 1782.460938 2201.507813 1785.507813 2193.242188 1786.933594 2184.390625 C 1788.414063 2175.117188 1789.164063 2166.304688 1789.164063 2158.222656 L 1789.164063 2058.417969 C 1789.164063 2051.023438 1791.535156 2044.671875 1796.214844 2039.539063 C 1801.015625 2034.261719 1807.285156 2031.589844 1814.847656 2031.589844 C 1822.292969 2031.589844 1828.695313 2034.207031 1833.878906 2039.363281 C 1839.058594 2044.5625 1841.671875 2050.96875 1841.671875 2058.417969 L 1841.671875 2158.222656 C 1841.671875 2181.695313 1838.464844 2201.628906 1832.132813 2217.453125 C 1825.773438 2233.332031 1817.488281 2246.445313 1807.503906 2256.4375 C 1797.496094 2266.441406 1785.894531 2273.972656 1773.023438 2278.8125 C 1760.3125 2283.570313 1747.46875 2286.375 1734.84375 2287.148438 L 1734.6875 2287.160156 Z M 1716.175781 2287.160156 "/>
<path style=" stroke:none;fill-rule:nonzero;fill:rgb(6.47583%,5.92804%,5.235291%);fill-opacity:1;" d="M 2071.824219 1952.425781 C 2086.933594 1952.425781 2099.042969 1949.941406 2107.804688 1945.035156 C 2116.550781 1940.148438 2123.269531 1933.976563 2127.785156 1926.703125 C 2132.367188 1919.289063 2135.417969 1911.027344 2136.847656 1902.160156 C 2138.328125 1892.886719 2139.078125 1884.085938 2139.078125 1876.003906 L 2139.078125 1602.953125 C 2139.078125 1594.886719 2138.328125 1586.074219 2136.84375 1576.78125 C 2135.414063 1567.910156 2132.363281 1559.652344 2127.78125 1552.246094 C 2123.324219 1545.054688 2116.644531 1539.101563 2107.933594 1534.554688 C 2099.132813 1529.984375 2086.976563 1527.667969 2071.824219 1527.667969 L 1998.84375 1527.667969 L 1998.84375 1952.425781 Z M 2164.753906 2287.160156 C 2157.175781 2287.160156 2150.90625 2284.480469 2146.113281 2279.199219 C 2141.453125 2274.101563 2139.078125 2267.75 2139.078125 2260.335938 L 2139.078125 2081.363281 C 2139.078125 2073.296875 2138.328125 2064.484375 2136.84375 2055.1875 C 2135.414063 2046.320313 2132.363281 2038.0625 2127.78125 2030.660156 C 2123.285156 2023.40625 2116.5625 2017.238281 2107.800781 2012.320313 C 2099.019531 2007.417969 2086.910156 2004.929688 2071.824219 2004.929688 L 1998.84375 2004.929688 L 1998.84375 2260.335938 C 1998.84375 2277.632813 1989.316406 2287.160156 1972.015625 2287.160156 C 1964.4375 2287.160156 1958.164063 2284.480469 1953.375 2279.199219 C 1948.710938 2274.101563 1946.335938 2267.75 1946.335938 2260.335938 L 1946.335938 1500.839844 C 1946.335938 1493.453125 1948.707031 1487.105469 1953.378906 1481.96875 C 1958.1875 1476.691406 1964.460938 1474.011719 1972.015625 1474.011719 L 2089.476563 1474.011719 L 2089.476563 1475.558594 C 2100.628906 1476.695313 2111.855469 1479.363281 2122.925781 1483.515625 C 2135.734375 1488.320313 2147.308594 1495.632813 2157.335938 1505.238281 C 2167.359375 1514.875 2175.671875 1527.816406 2182.046875 1543.714844 C 2188.375 1559.554688 2191.582031 1579.480469 2191.582031 1602.953125 L 2191.582031 1876.003906 C 2191.582031 1903.429688 2187.355469 1925.980469 2179.027344 1943.023438 C 2171.839844 1957.761719 2162.855469 1969.582031 2152.269531 1978.253906 C 2162.839844 1987.480469 2171.824219 1999.589844 2179.027344 2014.335938 C 2187.355469 2031.402344 2191.582031 2053.957031 2191.582031 2081.363281 L 2191.582031 2260.335938 C 2191.582031 2267.8125 2188.964844 2274.222656 2183.800781 2279.378906 C 2178.640625 2284.539063 2172.230469 2287.160156 2164.753906 2287.160156 "/>
<path style=" stroke:none;fill-rule:nonzero;fill:rgb(6.47583%,5.92804%,5.235291%);fill-opacity:1;" d="M 2265.707031 2287.160156 C 2255.507813 2287.160156 2247.640625 2282.691406 2242.953125 2274.242188 C 2238.320313 2265.898438 2238.320313 2257.070313 2242.953125 2248.714844 L 2399.015625 1905.117188 L 2350.609375 1905.117188 C 2343.140625 1905.117188 2336.742188 1902.570313 2331.605469 1897.554688 C 2326.414063 1892.53125 2323.773438 1886.234375 2323.773438 1878.867188 C 2323.773438 1871.511719 2326.414063 1865.230469 2331.613281 1860.179688 C 2336.761719 1855.164063 2343.152344 1852.617188 2350.609375 1852.617188 L 2423.078125 1852.617188 L 2569.984375 1526.519531 L 2313.890625 1526.519531 C 2306.347656 1526.519531 2300.09375 1523.917969 2295.304688 1518.796875 C 2290.601563 1513.78125 2288.214844 1507.546875 2288.214844 1500.269531 C 2288.214844 1492.988281 2290.605469 1486.761719 2295.3125 1481.746094 C 2300.105469 1476.621094 2306.359375 1474.011719 2313.890625 1474.011719 L 2612.179688 1474.011719 C 2619.726563 1474.011719 2625.996094 1476.699219 2630.816406 1481.988281 C 2635.496094 1487.167969 2637.863281 1493.53125 2637.863281 1500.914063 C 2637.863281 1507.175781 2636.085938 1512.695313 2632.578125 1517.332031 L 2480.023438 1852.617188 L 2536.460938 1852.617188 C 2543.890625 1852.617188 2550.28125 1855.164063 2555.457031 1860.179688 C 2560.65625 1865.253906 2563.289063 1871.535156 2563.289063 1878.867188 C 2563.289063 1886.21875 2560.65625 1892.507813 2555.460938 1897.558594 C 2550.296875 1902.578125 2543.90625 1905.117188 2536.460938 1905.117188 L 2457.089844 1905.117188 L 2306.796875 2234.65625 L 2542.199219 2234.65625 C 2549.566406 2234.65625 2555.910156 2237.03125 2561.0625 2241.699219 C 2566.351563 2246.535156 2569.023438 2252.796875 2569.023438 2260.335938 C 2569.023438 2267.804688 2566.402344 2274.214844 2561.238281 2279.378906 C 2556.078125 2284.539063 2549.675781 2287.160156 2542.199219 2287.160156 Z M 2265.707031 2287.160156 "/>
<use xlink:href="#surface4" transform="matrix(1,0,0,1,632,2470)" mask="url(#mask0)"/>
<path style=" stroke:none;fill-rule:nonzero;fill:rgb(79.676819%,64.544678%,44.439697%);fill-opacity:1;" d="M 419.683594 2540.136719 L 196.78125 2540.136719 L 196.78125 2516.039063 L 419.683594 2516.039063 Z M 419.683594 2540.136719 "/>
<path style=" stroke:none;fill-rule:nonzero;fill:rgb(79.676819%,64.544678%,44.439697%);fill-opacity:1;" d="M 2637.863281 2540.136719 L 2414.960938 2540.136719 L 2414.960938 2516.039063 L 2637.863281 2516.039063 Z M 2637.863281 2540.136719 "/>
</g>
</svg>
