<svg width="51" height="59" viewBox="0 0 51 59" fill="none" xmlns="http://www.w3.org/2000/svg">
<path d="M28.6638 30.4206L50.0926 6.84595C50.5645 6.32671 50.6814 5.60557 50.3974 4.96394C50.1136 4.32232 49.5014 3.92372 48.7998 3.92372H42.0971L44.4333 1.45966C44.762 1.11304 44.7474 0.565791 44.4009 0.237143C44.0543 -0.0912756 43.5071 -0.0768713 43.1783 0.269754L39.7139 3.92384H2.20007C1.49841 3.92384 0.886165 4.32243 0.602343 4.96406C0.31852 5.6058 0.435368 6.32694 0.907253 6.84607L22.3361 30.4206C22.5645 30.6718 22.8211 30.8917 23.0978 31.0794V51.8517C23.0978 52.9488 22.4016 53.9281 21.3653 54.2883L14.1854 56.7848C14.1678 56.7909 14.1506 56.7974 14.1336 56.8046C13.6265 57.0183 13.3484 57.5444 13.4573 58.0838C13.5663 58.6232 14.0268 59 14.5772 59H36.4225C36.9728 59 37.4334 58.6233 37.5424 58.0838C37.6515 57.5444 37.3733 57.0182 36.8661 56.8046C36.8492 56.7974 36.8318 56.7907 36.8144 56.7848L29.6345 54.2883C28.5983 53.928 27.9019 52.9488 27.9019 51.8517V31.0795C28.1787 30.8917 28.4354 30.6718 28.6638 30.4206ZM40.4574 5.65328H48.7998C48.8053 5.65328 48.8086 5.65339 48.8095 5.65351C48.8143 5.65835 48.8196 5.67033 48.82 5.67333C48.82 5.67333 48.8184 5.67655 48.8128 5.68266L43.4907 11.5377H39.237C39.6258 10.2922 39.3781 8.8493 38.5278 7.68855L40.4574 5.65328ZM29.0665 55.9219L32.9453 57.2705H18.0545L21.9333 55.9219C23.6643 55.32 24.8274 53.6844 24.8274 51.8517V31.7667C24.8655 31.7728 24.904 31.777 24.9424 31.7821C24.9627 31.7848 24.9829 31.7878 25.0032 31.7902C25.0491 31.7956 25.0951 31.7999 25.141 31.8037C25.1549 31.8048 25.1687 31.806 25.1825 31.807C25.2879 31.8148 25.3936 31.8203 25.5 31.8203C25.6065 31.8203 25.7124 31.8148 25.8179 31.8069C25.8313 31.8058 25.8448 31.8048 25.8581 31.8037C25.9046 31.7997 25.9509 31.7955 25.9971 31.7901C26.0165 31.7879 26.0357 31.7849 26.0551 31.7823C26.0943 31.7772 26.1336 31.7728 26.1725 31.7666V51.8515C26.1724 53.6844 27.3354 55.32 29.0665 55.9219ZM27.384 29.2572C27.1749 29.4872 26.9326 29.6726 26.667 29.81C26.6605 29.813 26.6538 29.8151 26.6475 29.8183C25.9289 30.1809 25.0707 30.181 24.3521 29.8183C24.3459 29.8152 24.3392 29.8131 24.3329 29.8101C24.0673 29.6727 23.8249 29.4873 23.6158 29.2573L9.08117 13.2672H12.2878C12.7653 13.2672 13.1525 12.88 13.1525 12.4024C13.1525 11.9249 12.7653 11.5377 12.2878 11.5377H7.50903L2.18693 5.68266C2.18313 5.67851 2.18117 5.67575 2.18059 5.67529C2.18082 5.66849 2.18624 5.65662 2.18808 5.65431C2.18808 5.65431 2.19154 5.65328 2.19995 5.65328H38.0741L37.2734 6.49783C36.567 6.03447 35.7592 5.77162 34.9324 5.74512C33.7877 5.70847 32.7417 6.12447 31.9903 6.91717C31.2389 7.70975 30.8788 8.77532 30.9765 9.91753C30.9893 10.0664 31.0103 10.2141 31.0382 10.3604C29.7906 10.1921 28.5312 10.5657 27.6537 11.4912C27.6393 11.5064 27.6262 11.5223 27.612 11.5377H16.3117C15.8341 11.5377 15.447 11.9249 15.447 12.4024C15.447 12.88 15.8341 13.2672 16.3117 13.2672H26.7203C26.6028 13.8061 26.5989 14.3726 26.7048 14.931C26.5572 14.9111 26.4085 14.898 26.2592 14.8931C25.1135 14.856 24.0686 15.2725 23.3171 16.0652C21.9789 17.4767 21.9677 19.7068 23.1803 21.3624L22.2243 22.3707C21.8958 22.7173 21.9103 23.2646 22.257 23.5932C22.4242 23.7518 22.6382 23.8304 22.8518 23.8304C23.0808 23.8304 23.3095 23.7399 23.4795 23.5606L24.4348 22.553C25.1412 23.0163 25.9488 23.2792 26.7759 23.3057C26.8227 23.3072 26.8691 23.308 26.9155 23.308C28.0063 23.308 28.9972 22.894 29.718 22.1338C30.4695 21.3412 30.8296 20.2756 30.7319 19.1334C30.7191 18.9846 30.6981 18.837 30.6703 18.6908C30.8633 18.7168 31.0567 18.7307 31.2488 18.7307C32.2985 18.7307 33.3131 18.342 34.0548 17.5596C34.9323 16.6341 35.2382 15.3566 35.0037 14.1198C35.1513 14.1397 35.3 14.1529 35.4492 14.1577C35.496 14.1592 35.5424 14.16 35.5889 14.16C36.5363 14.16 37.4081 13.8473 38.0932 13.267H41.9189L27.384 29.2572ZM28.9086 12.6811C29.3124 12.2553 29.8701 12.0456 30.4592 12.0456C31.1359 12.0456 31.854 12.3222 32.4274 12.8659C33.5 13.8831 33.6669 15.4549 32.7994 16.3698C31.9318 17.2846 30.3538 17.2018 29.2811 16.1854C29.281 16.1852 29.2807 16.185 29.2806 16.1849C28.208 15.1678 28.0411 13.596 28.9086 12.6811ZM28.4627 20.944C28.0558 21.3731 27.4785 21.5969 26.8312 21.5773C26.1476 21.5554 25.4774 21.2648 24.944 20.759C23.8713 19.742 23.7044 18.1702 24.572 17.2552C24.9617 16.8442 25.5096 16.6205 26.1219 16.6205C26.1491 16.6205 26.1763 16.6209 26.2035 16.6217C26.8868 16.6436 27.5569 16.9342 28.0902 17.4396C28.0904 17.4397 28.0906 17.4399 28.0907 17.44C28.624 17.9458 28.9499 18.5995 29.0082 19.281C29.0633 19.9241 28.8696 20.5147 28.4627 20.944ZM32.6997 9.77003C32.6446 9.1269 32.8384 8.53633 33.2452 8.10708C33.635 7.69615 34.1827 7.47237 34.7951 7.47237C34.8221 7.47237 34.8494 7.47283 34.8767 7.47364C35.5603 7.49565 36.2305 7.78615 36.7638 8.29191C37.8364 9.30886 38.0033 10.8808 37.1358 11.7957C36.7289 12.2249 36.1481 12.4487 35.5043 12.4291C34.8208 12.4073 34.1506 12.1167 33.6173 11.6109C33.0839 11.1052 32.7582 10.4514 32.6997 9.77003Z" fill="#CE9A58"/>
</svg>
