<svg width="148" height="33" viewBox="0 0 148 33" fill="none" xmlns="http://www.w3.org/2000/svg">
<g clip-path="url(#clip0)">
<path fill-rule="evenodd" clip-rule="evenodd" d="M109.58 1.27814V1.46749L109.053 1.42015L109.093 1.37282C107.227 1.2308 107.511 1.13612 106.781 1.56217C106.781 1.56217 106.416 1.75152 106.334 1.79886C106.334 1.79886 106.253 1.8462 106.253 1.89354L106.05 2.36692L104.549 2.17757C104.387 1.75152 104.144 2.22491 104.793 1.89354C104.833 1.89354 105.28 1.75152 105.361 1.75152C103.535 1.60951 102.115 1.18346 100.776 1.13612C99.1535 1.08879 97.4901 1.32548 95.7456 1.27814L95.5022 1.94088C91.8103 1.65685 89.9847 2.88765 86.2116 2.08289C87.5099 1.65685 89.7818 1.8462 91.3235 1.79886L90.9178 1.65685C89.6601 1.37282 91.932 1.79886 90.5121 1.56217L87.9967 1.46749C86.8202 1.51483 85.6031 1.70419 84.4671 1.60951C80.4101 1.18346 82.398 2.03555 78.7062 2.13023C76.2314 2.17757 74.5274 1.98822 72.0121 2.36692C70.1864 2.69829 67.5899 2.50894 65.5208 2.65096C54.2829 3.45571 29.454 6.91142 18.3377 8.94697C14.727 9.60971 11.0351 10.4618 7.62719 11.3612C5.84211 11.8346 4.13816 12.3553 2.47478 12.8287C0.486842 13.4441 0.243421 14.2015 0 16.2371C1.37939 16.8998 0.770833 17.2785 2.43421 17.0419C7.54605 16.2371 5.88268 15.669 10.9945 14.4382C19.7982 12.3553 41.5844 10.0831 50.875 9.08899C55.4594 8.56827 60.5307 8.33157 64.9934 7.76351C69.2533 7.19545 74.568 6.67473 78.9496 6.58005C82.8849 6.53271 108.201 6.24868 110.026 6.58005L109.986 6.48537L110.594 6.53271L111.041 6.48537C111.122 6.58005 111.243 6.62739 111.325 6.72206C112.136 6.154 118.424 6.62739 119.844 6.67473C120.209 6.72206 120.98 6.72206 121.264 6.7694L122.4 7.10077C122.4 7.14811 122.4 7.14811 122.4 7.14811C122.4 7.3848 122.847 7.14811 122.847 7.14811L124.794 7.33747L126.701 7.3848L128.283 7.33747L128.405 7.29013C131.894 7.24279 138.993 8.56827 142.523 8.8523C141.833 11.3612 137.046 11.3612 133.679 11.5506C122.116 12.1187 111.243 12.6867 99.5187 12.7341C91.932 12.7814 64.2632 15.243 57.2851 16.8052C56.9605 18.1306 56.636 18.2727 56.068 19.4088C59.4759 23.4326 70.9167 22.0124 77.4485 22.2491C79.6393 22.2964 80.9375 22.5331 82.966 22.8172C84.7511 23.0538 86.9013 23.0538 88.727 23.1485C90.5932 23.2905 92.5 23.4326 94.2851 23.7639C95.5833 24.0006 97.693 24.2846 98.5044 25.1841C94.5691 28.3558 87.5099 30.628 86.1711 31.4801C85.4408 32.0008 82.8443 32.8529 81.8706 32.9949C84.102 33.1843 94.2445 30.5807 95.8673 29.8232C97.1656 29.2078 100.127 27.267 100.776 26.5569C101.466 25.7995 101.628 24.4267 100.979 23.6219C100.208 22.5805 96.7599 21.3023 95.2588 20.9709C89.5384 19.6928 71.3224 19.4561 65.602 19.3614C69.1316 17.2785 87.591 16.7105 93.0274 16.9472C99.113 17.1839 95.0965 17.0419 100.005 16.8525C104.063 16.7105 110.391 17.0892 114.814 17.1365C117.248 17.1839 119.723 16.8998 121.832 16.8998C127.39 17.0419 144.268 18.746 147.391 13.6335C149.42 10.3198 145.769 6.7694 143.659 5.30191C141.468 3.83442 139.886 4.35514 138.101 3.59772C137.208 3.17168 136.519 2.93499 135.464 2.65096C133.476 2.13023 133.232 2.41426 132.867 1.75152L132.786 1.8462L130.636 1.60951L129.013 1.56217L129.135 1.32548C123.942 0.94677 120.372 0.378708 114.327 0L112.217 0.142015C112.988 0.426046 113.313 0.284031 113.962 0.473385C114.814 0.710077 114.611 0.804754 114.814 1.2308C113.759 1.08879 113.069 0.804754 112.298 0.473385C111.325 1.04145 111.081 1.27814 109.58 1.27814ZM131.569 4.63917L131.204 5.68062C132.543 5.86997 133.111 6.3907 134.734 6.58005C136.64 6.7694 138.304 7.47948 140.089 6.81674C138.709 5.91731 136.032 5.58594 133.882 5.49126L133.435 4.78119C132.218 4.82853 132.056 4.78119 131.569 4.63917ZM39.7588 8.52093C40.4079 8.14222 41.3004 8.14222 42.1118 7.95287C42.8827 7.76351 43.4507 7.6215 44.1809 7.3848C45.6415 6.86408 46.9397 6.29602 48.6031 6.67473C48.1568 7.95287 46.534 7.76351 44.6272 8.09488C42.7204 8.42625 41.625 8.94697 39.7588 8.52093ZM50.1853 7.29013C51.1184 6.20134 54.364 6.3907 56.352 6.05933C57.8125 5.82263 61.3421 4.9232 62.6404 5.5386C62.2347 6.10666 60.977 6.05933 59.6787 6.154C56.4737 6.3907 52.3355 7.29013 50.1853 7.29013ZM85.6842 4.54449C87.591 3.88176 105.442 3.02966 106.74 3.73974C106.294 4.35514 106.01 4.21313 104.793 4.21313L96.5165 4.40248C92.9869 4.44982 89.1733 4.63917 85.6842 4.54449ZM77.6919 3.6924C77.7325 3.6924 77.773 3.59772 77.8136 3.55039C78.4222 2.55628 77.8542 2.93499 78.4627 2.74563C78.7467 3.17168 78.6656 2.60362 78.5844 3.40837C78.5844 3.55039 78.4627 4.07111 78.4222 4.26046C77.5296 3.73974 74.7708 4.3078 73.716 5.15989C72.0932 6.48537 67.5494 4.97054 64.5066 6.05933C67.9551 3.83442 67.3465 5.49126 71.2007 4.97054C72.7018 4.78119 72.9046 4.35514 74 3.97643C74.7303 3.73974 76.7182 3.6924 77.6919 3.6924Z" fill="#CE9A58"/>
</g>
<defs>
<clipPath id="clip0">
<rect width="148" height="33" fill="white"/>
</clipPath>
</defs>
</svg>
